# xmcd
#
# Track frame offsets: 
#        150
#        15102
#        28600
#        47150
#        64517
#        79742
#        84885
#        98460
#        113762
#        130425
#        150765
#        168452
#        184490
#        194880
#        216077
#
# Disc length: 3084 seconds
#
# Revision: 4
# Processed by: cddbd v1.5.2PL0 Copyright (c) Steve Scherf et al.
# Submitted via: ExactAudioCopy v0.99pb5
#
DISCID=b70c0a0f
DTITLE=Lynn August - Sauce Piquante
DYEAR=1993
DGENRE=
TTITLE0=Bruler le chemin-de-fer a soir
TTITLE1=Slippin' And Slidin'
TTITLE2=Did You Have Fun Making Me Cry?
TTITLE3=Lead Me On
TTITLE4=Love At First Sight
TTITLE5=Jure' #3
TTITLE6=It's Too Late
TTITLE7=Rockin' Accordion
TTITLE8=The Lord's Gonna Fix It
TTITLE9=La chanson du pain perdu
TTITLE10=Marked Deck
TTITLE11=You Used To Call Me
TTITLE12=Jure' #4
TTITLE13=City Woman (I'm Not Your Country Boy)
TTITLE14=Jaywalkin'
EXTD=
EXTT0=
EXTT1=
EXTT2=
EXTT3=
EXTT4=
EXTT5=
EXTT6=
EXTT7=
EXTT8=
EXTT9=
EXTT10=
EXTT11=
EXTT12=
EXTT13=
EXTT14=
PLAYORDER=
